<svg width="93" height="25" viewBox="0 0 93 25" fill="none" xmlns="http://www.w3.org/2000/svg">
<circle cx="12.5" cy="12.5" r="12.5" fill="#13111A"/>
<path d="M12.5539 3.25L8.64111 10.0278H16.4665L12.5539 3.25Z" fill="white"/>
<path d="M16.4665 11.1572H8.64111L12.5539 17.9353L16.4665 11.1572Z" fill="white"/>
<path d="M7.66277 11.7227L3.75 18.4999H11.5755L7.66277 11.7227Z" fill="white"/>
<path d="M17.4456 11.7227L13.5332 18.4999H21.3587L17.4456 11.7227Z" fill="white"/>
<path d="M31 20.7869V18.4754L39.0735 7.29508H31.0081V4H44.1529V6.31148L36.0794 17.4918H44.1448V20.7869H31Z" fill="#13111A"/>
<path d="M56.4785 4H60.4868V14.8279C60.4868 16.0792 60.192 17.1694 59.6024 18.0984C59.0128 19.0219 58.1906 19.7377 57.1357 20.2459C56.0809 20.7486 54.8557 21 53.4601 21C52.0482 21 50.8149 20.7486 49.76 20.2459C48.7052 19.7377 47.8857 19.0219 47.3015 18.0984C46.7173 17.1694 46.4252 16.0792 46.4252 14.8279V4H50.4416V14.4754C50.4416 15.0546 50.566 15.571 50.8149 16.0246C51.0691 16.4781 51.4234 16.8333 51.8778 17.0902C52.3322 17.347 52.8596 17.4754 53.4601 17.4754C54.0605 17.4754 54.5852 17.347 55.0342 17.0902C55.4886 16.8333 55.8429 16.4781 56.0971 16.0246C56.3514 15.571 56.4785 15.0546 56.4785 14.4754V4Z" fill="#13111A"/>
<path d="M62.7632 20.7869V18.4754L70.8367 7.29508H62.7713V4H75.9161V6.31148L67.8426 17.4918H75.9079V20.7869H62.7632Z" fill="#13111A"/>
<path d="M88.2417 4H92.25V14.8279C92.25 16.0792 91.9552 17.1694 91.3656 18.0984C90.7759 19.0219 89.9537 19.7377 88.8989 20.2459C87.8441 20.7486 86.6188 21 85.2232 21C83.8114 21 82.578 20.7486 81.5232 20.2459C80.4684 19.7377 79.6489 19.0219 79.0646 18.0984C78.4804 17.1694 78.1883 16.0792 78.1883 14.8279V4H82.2048V14.4754C82.2048 15.0546 82.3292 15.571 82.578 16.0246C82.8323 16.4781 83.1866 16.8333 83.641 17.0902C84.0954 17.347 84.6228 17.4754 85.2232 17.4754C85.8237 17.4754 86.3484 17.347 86.7973 17.0902C87.2517 16.8333 87.606 16.4781 87.8603 16.0246C88.1145 15.571 88.2417 15.0546 88.2417 14.4754V4Z" fill="#13111A"/>
</svg>
